HIERARCHY
ROOT Hips
{
	OFFSET 0.000000 0.000000 0.000000
	CHANNELS 6 Xposition Yposition Zposition Zrotation Yrotation Xrotation 
	JOINT LHipJoint
	{
		OFFSET 0.000000 0.000000 0.000000
		CHANNELS 3 Zrotation Yrotation Xrotation
		JOINT LeftUpLeg
		{
			OFFSET 1.363060 -1.794630 0.839290
			CHANNELS 3 Zrotation Yrotation Xrotation
			JOINT LeftLeg
			{
				OFFSET 2.448110 -6.726130 0.000000
				CHANNELS 3 Zrotation Yrotation Xrotation
				JOINT LeftFoot
				{
					OFFSET 2.562200 -7.039590 0.000000
					CHANNELS 3 Zrotation Yrotation Xrotation
					JOINT LeftToeBase
					{
						OFFSET 0.157640 -0.433110 2.322550
						CHANNELS 3 Zrotation Yrotation Xrotation
						End Site
						{
							OFFSET 0.000000 0.000000 0.000000
						}
					}
				}
			}
		}
	}
	JOINT RHipJoint
	{
		OFFSET 0.000000 0.000000 0.000000
		CHANNELS 3 Zrotation Yrotation Xrotation
		JOINT RightUpLeg
		{
			OFFSET -1.305520 -1.794630 0.839290
			CHANNELS 3 Zrotation Yrotation Xrotation
			JOINT RightLeg
			{
				OFFSET -2.542530 -6.985550 0.000000
				CHANNELS 3 Zrotation Yrotation Xrotation
				JOINT RightFoot
				{
					OFFSET -2.568260 -7.056230 0.000000
					CHANNELS 3 Zrotation Yrotation Xrotation
					JOINT RightToeBase
					{
						OFFSET -0.164730 -0.452590 2.363150
						CHANNELS 3 Zrotation Yrotation Xrotation
						End Site
						{
							OFFSET 0.000000 0.000000 0.000000
						}
					}
				}
			}
		}
	}
}
MOTION
Frames: 14
Frame Time: 0.008333
2.836830 16.629941 -1.399817 -168.777866 83.459031 -149.545497 -12.239068 3.326214 -1.262136 -7.510510 -0.634090 -1.375647 -0.665805 2.245016 30.747209 0.624682 0.826646 9.792496 0.065000 -0.000000 -79.982200 7.734383 0.941941 1.494594 4.008947 6.534935 -44.940343 2.370001 -1.310921 20.109778 1.008240 5.839052 10.584068 1.331800 0.000000 -53.056500
3.026138 16.642543 -1.429246 -166.268143 83.009732 -147.098138 -12.633687 3.320932 -1.415507 -6.610304 0.635519 -2.659674 -0.451654 2.389730 33.153651 0.842841 1.999135 11.529493 0.346300 0.000000 -78.010300 7.514582 0.826022 1.440170 4.632382 6.834318 -44.671238 2.328661 -1.364312 21.489091 0.863663 4.835584 9.324120 0.904200 0.000000 -52.432300
3.211183 16.658592 -1.455080 -164.624809 82.469844 -145.544195 -12.978597 3.272628 -1.592853 -5.787608 1.939463 -3.994493 -0.251704 2.518039 35.638883 1.105941 3.651657 13.081026 0.840300 -0.000000 -74.946000 7.321387 0.717302 1.392921 5.188901 7.095656 -44.251062 2.290052 -1.394496 22.686070 0.697723 3.793662 7.897931 0.500600 -0.000001 -51.991600
3.392238 16.677927 -1.477345 -163.723888 81.857440 -144.749451 -13.267887 3.187832 -1.784590 -5.059966 3.234489 -5.378758 -0.075743 2.635194 38.181449 1.405735 5.761933 14.325328 1.562800 0.000000 -70.713600 7.161725 0.619686 1.352885 5.672525 7.308245 -43.690906 2.254402 -1.402495 23.674361 0.516442 2.753558 6.420266 0.146800 0.000000 -51.690700
3.569617 16.700436 -1.496066 -163.479468 81.187941 -144.617060 -13.495239 3.076044 -1.980442 -4.455045 4.473135 -6.806060 0.070303 2.747097 40.746338 1.730520 8.253148 15.159195 2.485300 0.000000 -65.432200 7.043348 0.536161 1.318360 6.071289 7.450856 -43.012112 2.220552 -1.391500 24.443436 0.328325 1.755158 4.991764 -0.143100 0.000000 -51.497100
3.743698 16.726058 -1.511624 -163.775326 80.470861 -145.018697 -13.661511 2.948070 -2.169385 -3.988420 5.613830 -8.274832 0.185928 2.859365 43.292962 2.065964 10.987220 15.521829 3.527500 -0.000000 -59.472500 6.968078 0.466104 1.287616 6.382946 7.506302 -42.239371 2.188261 -1.364487 24.987068 0.142172 0.824028 3.695738 -0.369600 0.000000 -51.386901
3.914841 16.754780 -1.524735 -164.490506 79.711291 -145.821146 -13.771870 2.814200 -2.339927 -3.667069 6.618647 -9.785269 0.275526 2.975315 45.778051 2.397269 13.790845 15.416013 4.577200 -0.000000 -53.377500 6.933767 0.406824 1.258838 6.611872 7.461382 -41.399524 2.157913 -1.324268 25.306489 -0.034418 -0.026645 2.589428 -0.542200 -0.000000 -51.342500
4.083292 16.786582 -1.535989 -165.542146 78.913638 -146.933418 -13.829785 2.683359 -2.482963 -3.503261 7.454076 -11.330351 0.346262 3.094700 48.160178 2.710882 16.491769 14.907495 5.524900 0.000000 -47.730500 6.939965 0.356800 1.228083 6.757883 7.299568 -40.518179 2.129420 -1.274472 25.416491 -0.195225 -0.785968 1.698176 -0.672599 0.000000 -51.352100
4.249279 16.821421 -1.546394 -166.813555 78.078649 -148.230033 -13.846032 2.560897 -2.590089 -3.488450 8.102274 -12.914933 0.405384 3.215357 50.414143 2.994076 18.932598 14.089583 6.281700 0.000000 -42.918101 6.978699 0.311822 1.194141 6.835656 7.019061 -39.618128 2.104411 -1.216648 25.330594 -0.337638 -1.459423 1.024524 -0.775400 0.000000 -51.402300
4.412960 16.859194 -1.556698 -168.220875 77.209350 -149.624032 -13.828717 2.449656 -2.657619 -3.615897 8.558012 -14.535802 0.458602 3.333404 52.520133 3.236425 20.998405 13.062083 6.797000 -0.000001 -39.085800 7.043835 0.269498 1.154856 6.855807 6.619998 -38.716222 2.083894 -1.152641 25.072284 -0.461099 -2.052639 0.546704 -0.860800 0.000000 -51.480900
4.574204 16.899718 -1.567587 -169.686359 76.312471 -151.042001 -13.785688 2.349582 -2.687146 -3.871797 8.832218 -16.181737 0.509284 3.444726 54.460826 3.430191 22.616903 11.917041 7.057500 0.000000 -36.195700 7.128541 0.228229 1.107347 6.830825 6.110087 -37.818813 2.068880 -1.083965 24.668158 -0.566862 -2.573562 0.228306 -0.935600 -0.000000 -51.576099
4.732960 16.942698 -1.579654 -171.136989 75.396022 -152.416841 -13.725186 2.258518 -2.682150 -4.233340 8.944334 -17.838650 0.558520 3.545480 56.218622 3.570964 23.757247 10.739715 7.084101 0.000000 -34.174600 7.224481 0.186394 1.050080 6.776831 5.507456 -36.925665 2.060426 -1.011319 24.143701 -0.657494 -3.033164 0.027884 -1.003900 0.000000 -51.678700
4.889052 16.987790 -1.593336 -172.512876 74.471091 -153.699963 -13.653939 2.173182 -2.650215 -4.673671 8.923501 -19.485894 0.605365 3.633452 57.778325 3.656735 24.418924 9.583664 6.912100 -0.000000 -32.814600 7.324153 0.143127 0.981239 6.708050 4.836570 -36.028417 2.058978 -0.935488 23.523568 -0.735639 -3.440887 -0.093290 -1.066900 0.000000 -51.784000
5.042390 17.034582 -1.608791 -173.776128 73.549093 -154.863145 -13.576798 2.089651 -2.597323 -5.166101 8.794380 -21.102066 0.648199 3.706139 59.121050 3.690759 24.645620 8.520427 6.605800 0.000000 -32.126900 7.421568 0.097941 0.900717 6.635113 4.125852 -35.117698 2.064135 -0.857159 22.830423 -0.803452 -3.803971 -0.165689 -1.124900 -0.000000 -51.894200
